<?xml version="1.0" standalone="no"?>
<!DOCTYPE svg PUBLIC "-//W3C//DTD SVG 20010904//EN"
 "http://www.w3.org/TR/2001/REC-SVG-20010904/DTD/svg10.dtd">
<svg version="1.0" xmlns="http://www.w3.org/2000/svg"
 width="407.000000pt" height="407.000000pt" viewBox="0 0 407.000000 407.000000"
 preserveAspectRatio="xMidYMid meet">
<metadata>
Created by potrace 1.14, written by Peter Selinger 2001-2017
</metadata>
<g transform="translate(0.000000,407.000000) scale(0.100000,-0.100000)"
fill="#000000" stroke="none">
<path d="M1514 4035 c-132 -24 -370 -114 -433 -164 -20 -15 -47 -34 -61 -41
-25 -13 -137 -101 -216 -169 -44 -38 -68 -57 -106 -81 -39 -25 -238 -228 -238
-242 0 -10 2 -10 9 1 5 8 24 15 43 15 50 1 251 -14 256 -19 11 -11 45 21 78
73 48 74 212 238 289 289 109 71 210 117 350 158 74 22 83 23 275 31 134 5
170 3 260 -16 58 -11 123 -24 145 -28 23 -5 46 -12 53 -16 7 -4 49 -9 95 -11
89 -4 162 -32 222 -87 17 -15 35 -28 42 -28 6 0 13 -3 15 -7 2 -5 25 -23 51
-42 52 -36 58 -36 116 8 l24 19 -37 13 c-21 7 -35 18 -32 25 5 12 -23 44 -38
44 -4 0 -24 11 -44 25 -20 14 -43 25 -50 25 -7 0 -28 11 -46 25 -18 14 -38 25
-45 25 -7 0 -31 11 -54 24 -108 62 -336 133 -502 156 -97 13 -336 10 -421 -5z"/>
<path d="M1593 3828 c-52 -11 -64 -38 -36 -77 32 -43 65 -39 146 17 40 27 86
54 102 60 25 9 13 10 -70 10 -55 0 -119 -4 -142 -10z"/>
<path d="M1312 3740 c-18 -11 -37 -20 -43 -20 -5 0 -37 -18 -70 -40 -33 -22
-64 -40 -69 -40 -5 0 -17 -10 -27 -22 -10 -13 -43 -45 -73 -73 -30 -27 -67
-65 -82 -85 -15 -19 -31 -39 -36 -45 -48 -60 -56 -76 -42 -85 8 -5 40 -10 71
-10 31 0 123 -7 205 -14 82 -8 219 -20 304 -26 85 -6 193 -15 238 -21 92 -11
275 -23 365 -24 31 0 57 -3 57 -6 0 -3 51 -9 113 -13 61 -4 137 -9 167 -12 30
-2 78 -6 105 -8 28 -3 111 -10 185 -16 74 -6 142 -12 150 -12 8 0 62 -7 120
-14 119 -15 200 -18 200 -6 0 12 -145 159 -228 232 l-72 63 -23 -21 c-31 -29
-117 -46 -198 -39 -132 11 -254 62 -373 156 l-56 43 -64 -42 c-36 -23 -86 -48
-112 -56 -55 -16 -192 -18 -249 -3 -51 13 -175 71 -175 81 0 4 -6 8 -13 8 -7
0 -19 10 -27 21 -8 12 -20 27 -26 33 -6 6 -16 21 -23 34 -15 29 -24 28 -78 -9
-29 -20 -48 -28 -55 -21 -11 11 -13 79 -3 110 8 29 -18 29 -63 2z m1218 -440
c0 -5 -2 -10 -4 -10 -3 0 -8 5 -11 10 -3 6 -1 10 4 10 6 0 11 -4 11 -10z
m-400 -14 c0 -3 -4 -8 -10 -11 -5 -3 -10 -1 -10 4 0 6 5 11 10 11 6 0 10 -2
10 -4z m610 -6 c0 -5 -2 -10 -4 -10 -3 0 -8 5 -11 10 -3 6 -1 10 4 10 6 0 11
-4 11 -10z m-280 -31 c0 -5 -4 -9 -10 -9 -5 0 -10 7 -10 16 0 8 5 12 10 9 6
-3 10 -10 10 -16z m46 -6 c-10 -10 -19 5 -10 18 6 11 8 11 12 0 2 -7 1 -15 -2
-18z m394 17 c0 -5 -2 -10 -4 -10 -3 0 -8 5 -11 10 -3 6 -1 10 4 10 6 0 11 -4
11 -10z m-280 -24 c0 -3 -4 -8 -10 -11 -5 -3 -10 -1 -10 4 0 6 5 11 10 11 6 0
10 -2 10 -4z m160 -16 c0 -5 -5 -10 -11 -10 -5 0 -7 5 -4 10 3 6 8 10 11 10 2
0 4 -4 4 -10z m57 -16 c-9 -9 -28 6 -21 18 4 6 10 6 17 -1 6 -6 8 -13 4 -17z
m110 0 c-3 -3 -12 -4 -19 -1 -8 3 -5 6 6 6 11 1 17 -2 13 -5z m47 -10 c5 -14
4 -15 -9 -4 -17 14 -19 20 -6 20 5 0 12 -7 15 -16z"/>
<path d="M2872 3584 c5 -20 7 -53 3 -74 -6 -34 -3 -40 23 -59 17 -11 36 -21
43 -21 7 0 10 -3 7 -6 -6 -5 33 -46 103 -109 19 -17 54 -55 79 -85 90 -108 78
-100 160 -107 86 -7 87 -17 -9 97 -81 96 -389 400 -405 400 -12 0 -12 -7 -4
-36z"/>
<path d="M389 3040 c-125 -84 -134 -92 -131 -119 2 -16 -3 -44 -11 -62 -7 -19
-22 -95 -31 -169 -9 -74 -22 -172 -28 -217 -11 -82 -5 -156 32 -403 27 -177
84 -375 171 -595 37 -95 89 -205 97 -205 7 0 72 39 213 126 82 51 90 54 153
54 64 0 76 5 57 26 -14 15 -106 203 -139 284 -39 96 -75 206 -102 306 -55 210
-74 510 -46 729 24 185 39 234 69 222 13 -5 13 -14 1 -69 -69 -302 -56 -646
35 -938 35 -115 73 -224 93 -270 37 -85 131 -265 147 -281 13 -13 47 -18 170
-23 l153 -7 -6 33 c-3 18 -8 53 -11 78 -3 25 -10 68 -15 95 -6 28 -19 113 -30
190 -12 77 -25 160 -30 185 -5 25 -14 79 -20 120 -13 90 -27 179 -46 280 -7
41 -18 109 -24 150 -10 73 -14 100 -45 304 -17 111 -16 112 48 153 22 13 37
26 35 28 -2 2 -41 8 -88 14 -47 5 -177 24 -290 40 -112 17 -214 31 -225 31
-12 0 -82 -40 -156 -90z"/>
<path d="M3431 2938 c31 -167 35 -182 80 -263 54 -99 81 -160 109 -250 12 -38
25 -74 29 -80 5 -5 11 -21 14 -35 3 -14 17 -68 31 -120 15 -52 29 -117 32
-145 7 -71 12 -84 25 -65 8 11 9 9 4 -10 -14 -50 -9 -134 7 -124 7 5 8 3 4 -5
-5 -7 -8 -69 -7 -139 0 -70 -3 -154 -8 -187 -5 -38 -5 -62 1 -66 6 -4 4 -16
-5 -30 -29 -45 -31 -128 -6 -263 12 -69 19 -129 15 -133 -8 -8 -240 -5 -292 3
-16 3 -85 7 -154 10 -69 2 -168 9 -220 14 -52 5 -153 12 -225 15 -126 6 -689
40 -830 50 -38 2 -122 7 -185 10 -63 3 -126 8 -140 10 -14 2 -70 7 -125 10
-360 18 -495 26 -612 36 l-133 11 -49 -26 c-27 -14 -84 -48 -126 -76 -43 -27
-81 -50 -86 -50 -5 0 -9 -4 -9 -10 0 -5 14 -10 30 -10 34 0 58 -21 106 -92 26
-40 117 -148 191 -228 18 -19 33 -38 33 -42 0 -10 230 -213 283 -250 183 -127
270 -176 492 -278 99 -46 208 -74 384 -100 157 -24 263 -25 386 -4 50 8 117
18 150 23 89 13 187 54 423 179 12 7 31 17 43 22 152 78 220 121 303 195 93
83 157 154 169 187 4 10 12 18 19 18 7 0 20 11 28 24 8 13 36 55 61 93 26 38
50 80 54 94 4 13 13 38 20 54 7 17 23 62 35 100 12 39 28 81 35 95 7 14 18 54
24 90 7 36 17 88 23 115 12 56 21 383 13 433 -3 18 -10 30 -14 28 -4 -3 -4 14
2 38 12 54 -25 304 -48 322 -8 6 -12 14 -8 17 3 4 -3 35 -14 69 -11 35 -26 83
-33 108 -42 149 -56 189 -107 289 -18 35 -33 67 -33 71 0 7 -42 85 -98 182
-22 39 -102 158 -106 158 -1 0 5 -42 15 -92z m389 -1322 c0 -3 -4 -8 -10 -11
-5 -3 -10 -1 -10 4 0 6 5 11 10 11 6 0 10 -2 10 -4z m31 -243 c-8 -15 -10 -15
-11 -2 0 17 10 32 18 25 2 -3 -1 -13 -7 -23z m-71 -53 c0 -5 -5 -10 -11 -10
-5 0 -7 5 -4 10 3 6 8 10 11 10 2 0 4 -4 4 -10z m-2523 -262 c26 -30 68 -71
203 -197 119 -111 451 -315 565 -346 41 -11 43 -12 108 -34 163 -57 369 -80
550 -63 168 15 358 70 385 110 9 14 25 22 42 22 15 0 33 7 40 15 9 10 9 15 1
15 -6 0 -11 5 -11 10 0 6 9 10 21 10 11 0 17 -5 14 -10 -13 -21 12 -9 65 31
54 40 130 112 130 123 0 3 22 27 49 55 28 27 64 72 81 100 24 39 38 51 56 51
13 0 24 -4 24 -10 0 -16 -81 -129 -150 -209 -59 -69 -169 -159 -265 -218 -51
-32 -181 -87 -240 -103 -27 -7 -54 -18 -60 -24 -5 -6 -32 -12 -60 -12 -27 -1
-107 -5 -176 -9 -138 -9 -221 0 -394 41 -87 20 -134 36 -300 98 -16 6 -62 30
-102 54 -39 23 -74 42 -78 42 -3 0 -21 11 -39 25 -18 14 -36 25 -39 25 -8 0
-119 75 -142 97 -11 10 -36 31 -55 47 -60 49 -172 150 -189 169 -9 11 -35 40
-58 65 -24 26 -43 50 -43 55 0 19 43 3 67 -25z m1158 -48 c3 -5 1 -10 -4 -10
-6 0 -11 5 -11 10 0 6 2 10 4 10 3 0 8 -4 11 -10z m185 -25 c0 -12 -29 -3 -34
10 -4 13 -2 14 14 5 11 -6 20 -13 20 -15z m160 -11 c0 -2 -7 -4 -15 -4 -8 0
-15 4 -15 10 0 5 7 7 15 4 8 -4 15 -8 15 -10z m155 -4 c4 -6 15 -8 26 -5 11 4
19 2 19 -4 0 -16 -46 -13 -60 4 -8 9 -9 15 -2 15 6 0 14 -5 17 -10z m210 -19
c-8 -14 -52 -14 -60 -1 -4 7 2 9 18 5 14 -4 28 -2 32 5 4 6 9 9 12 6 3 -2 2
-9 -2 -15z m-608 -17 c-3 -3 -12 -4 -19 -1 -8 3 -5 6 6 6 11 1 17 -2 13 -5z
m759 -3 c-3 -5 -15 -7 -26 -4 -28 7 -25 13 6 13 14 0 23 -4 20 -9z m174 5 c0
-3 -4 -8 -10 -11 -5 -3 -10 -1 -10 4 0 6 5 11 10 11 6 0 10 -2 10 -4z m-743
-22 c-3 -3 -12 -4 -19 -1 -8 3 -5 6 6 6 11 1 17 -2 13 -5z m173 -6 c0 -11 -38
-10 -44 1 -3 5 5 8 19 7 14 0 25 -4 25 -8z m170 -10 c0 -5 -11 -8 -24 -8 -14
0 -27 3 -29 8 -3 4 8 7 24 7 16 0 29 -3 29 -7z m-600 -21 c11 -5 9 -6 -4 -4
-11 1 -21 9 -23 17 -3 10 -2 11 4 4 4 -6 15 -14 23 -17z m759 7 c-9 -8 -23
-12 -32 -8 -26 10 -20 19 15 21 28 2 30 1 17 -13z m171 1 c0 -8 -7 -15 -15
-15 -13 0 -14 3 -3 15 16 18 18 18 18 0z m-589 -33 c-13 -2 -27 0 -32 5 -6 6
3 7 23 4 28 -4 29 -6 9 -9z m909 8 c0 -5 -5 -10 -11 -10 -5 0 -7 5 -4 10 3 6
8 10 11 10 2 0 4 -4 4 -10z m-765 -18 c-3 -3 -11 0 -18 7 -9 10 -8 11 6 5 10
-3 15 -9 12 -12z m-569 -19 c-7 -7 -26 7 -26 19 0 6 6 6 15 -2 9 -7 13 -15 11
-17z m609 17 c-3 -5 -11 -10 -16 -10 -6 0 -7 5 -4 10 3 6 11 10 16 10 6 0 7
-4 4 -10z m-441 -29 c-2 -3 -12 3 -22 13 -16 17 -16 18 5 5 12 -7 20 -15 17
-18z m600 19 c-7 -7 -19 -7 -35 -1 -23 9 -22 10 11 10 23 1 31 -2 24 -9z m166
-10 c0 -5 -8 -10 -17 -10 -15 0 -16 2 -3 10 19 12 20 12 20 0z m-570 -26 c0
-2 -9 -4 -20 -4 -11 0 -20 4 -20 9 0 5 9 7 20 4 11 -3 20 -7 20 -9z m-444 -21
c-7 -7 -26 7 -26 19 0 6 6 6 15 -2 9 -7 13 -15 11 -17z m599 17 l20 -9 -20 0
c-11 0 -27 4 -35 9 -13 9 -13 10 0 9 8 0 24 -4 35 -9z m185 -10 c0 -5 -15 -9
-32 -9 l-33 1 30 8 c17 4 31 8 33 9 1 0 2 -3 2 -9z m-610 -20 c0 -5 -2 -10 -4
-10 -3 0 -8 5 -11 10 -3 6 -1 10 4 10 6 0 11 -4 11 -10z m763 3 c-7 -2 -19 -2
-25 0 -7 3 -2 5 12 5 14 0 19 -2 13 -5z m332 -13 c-3 -5 -12 -10 -18 -10 -7 0
-6 4 3 10 19 12 23 12 15 0z m-742 -17 c-7 -2 -19 -2 -25 0 -7 3 -2 5 12 5 14
0 19 -2 13 -5z m169 -15 c-9 -9 -15 -9 -24 0 -9 9 -7 12 12 12 19 0 21 -3 12
-12z m173 -8 c-3 -5 -12 -10 -20 -10 -8 0 -17 5 -20 10 -4 6 5 10 20 10 15 0
24 -4 20 -10z m165 -10 c-8 -5 -18 -6 -24 -3 -5 4 -1 10 10 13 24 9 34 2 14
-10z m-419 -38 c-7 -2 -18 1 -23 6 -8 8 -4 9 13 5 13 -4 18 -8 10 -11z m165
-10 c-10 -2 -22 0 -28 6 -6 6 0 7 19 4 21 -5 23 -7 9 -10z m184 -2 c0 -5 -5
-10 -11 -10 -5 0 -7 5 -4 10 3 6 8 10 11 10 2 0 4 -4 4 -10z m160 -10 c0 -5
-5 -10 -11 -10 -5 0 -7 5 -4 10 3 6 8 10 11 10 2 0 4 -4 4 -10z m-586 -19 c11
-4 15 -10 9 -14 -5 -3 -19 0 -29 8 -20 15 -11 18 20 6z m163 -17 c-3 -3 -12
-4 -19 -1 -8 3 -5 6 6 6 11 1 17 -2 13 -5z m-232 -44 c-3 -5 -12 -7 -20 -3
-21 7 -19 13 6 13 11 0 18 -4 14 -10z m515 -30 c0 -5 -8 -10 -17 -10 -15 0
-16 2 -3 10 19 12 20 12 20 0z m160 -10 c0 -5 -5 -10 -11 -10 -5 0 -7 5 -4 10
3 6 8 10 11 10 2 0 4 -4 4 -10z m-747 -17 c-7 -2 -19 -2 -25 0 -7 3 -2 5 12 5
14 0 19 -2 13 -5z m670 -40 c-7 -2 -19 -2 -25 0 -7 3 -2 5 12 5 14 0 19 -2 13
-5z m-73 -53 c0 -5 -4 -10 -10 -10 -5 0 -10 5 -10 10 0 6 5 10 10 10 6 0 10
-4 10 -10z m-243 -46 c-3 -3 -12 -4 -19 -1 -8 3 -5 6 6 6 11 1 17 -2 13 -5z
m170 -10 c-3 -3 -12 -4 -19 -1 -8 3 -5 6 6 6 11 1 17 -2 13 -5z m-247 -44 c0
-5 -2 -10 -4 -10 -3 0 -8 5 -11 10 -3 6 -1 10 4 10 6 0 11 -4 11 -10z"/>
<path d="M1466 2968 c3 -29 10 -82 15 -118 5 -36 16 -110 24 -165 14 -96 26
-174 42 -280 8 -48 9 -50 48 -57 22 -4 69 -7 105 -8 36 0 85 -5 110 -10 27 -5
46 -5 48 1 2 5 12 4 23 -2 15 -7 24 -7 34 1 9 7 15 8 20 0 3 -5 24 -10 46 -10
24 0 38 4 34 10 -3 6 -2 10 4 10 5 0 13 -4 16 -10 3 -5 19 -10 35 -10 16 0 32
-4 35 -10 8 -13 72 -13 80 0 4 7 12 7 25 0 10 -5 25 -7 33 -4 8 3 18 1 22 -5
12 -21 35 -12 35 14 0 18 -5 25 -20 25 -12 0 -20 7 -20 16 0 11 5 14 16 10 13
-5 15 -2 10 16 -3 13 -6 35 -6 51 0 20 -5 27 -20 27 -11 0 -20 7 -20 15 0 9 6
12 16 8 12 -4 14 0 9 20 -5 18 -2 28 12 35 15 9 16 14 6 31 -10 15 -9 22 2 31
12 10 15 9 15 -9 0 -27 30 -28 54 -2 15 16 15 20 2 30 -14 11 -14 15 0 36 8
12 12 30 8 39 -7 18 11 22 22 5 3 -6 16 -8 28 -5 16 4 24 -2 36 -27 12 -27 21
-32 49 -33 26 0 36 -6 42 -22 6 -14 17 -22 33 -22 48 0 56 -9 57 -64 1 -28 3
-43 6 -34 3 13 9 15 27 8 28 -10 46 4 46 37 0 21 3 22 20 13 14 -8 26 -8 40 0
17 9 20 8 20 -8 0 -11 9 -31 20 -45 13 -16 17 -28 10 -32 -6 -4 -15 7 -21 24
-13 38 -53 52 -77 28 -13 -14 -14 -21 -3 -44 12 -27 12 -27 -6 -10 -11 9 -29
17 -41 17 -18 0 -22 -6 -22 -32 0 -19 9 -41 22 -55 15 -16 19 -26 12 -31 -14
-9 -23 -91 -13 -117 7 -19 8 -18 8 3 1 18 5 22 20 17 30 -9 51 5 51 34 0 23 4
26 33 26 29 0 32 3 32 32 0 31 1 32 22 18 33 -22 53 -9 54 34 0 20 3 30 6 24
2 -7 18 -13 34 -13 25 0 29 4 29 29 0 26 3 29 33 27 28 -1 32 2 35 26 3 24 6
27 23 18 13 -8 25 -7 39 0 17 9 20 8 20 -7 0 -14 -8 -18 -32 -18 -29 0 -33 -4
-36 -27 -4 -30 -9 -33 -32 -18 -19 12 -40 -6 -40 -34 0 -17 -6 -21 -32 -21
-30 0 -33 -3 -36 -32 -3 -28 -5 -31 -21 -21 -10 6 -26 8 -36 4 -14 -5 -16 -14
-12 -42 6 -34 5 -35 -12 -20 -10 9 -27 16 -39 16 -22 0 -27 -13 -24 -53 2 -15
-1 -16 -19 -7 -31 17 -49 5 -49 -33 0 -40 19 -60 52 -55 17 2 24 11 26 31 4
29 9 32 32 17 19 -12 40 6 40 35 0 20 5 23 33 21 29 -1 32 2 35 32 3 29 5 31
23 21 31 -16 49 -4 49 32 0 27 2 30 15 19 8 -7 25 -10 40 -6 21 5 25 3 25 -16
0 -17 -3 -19 -12 -10 -31 31 -71 -9 -54 -53 5 -13 3 -13 -18 0 -31 20 -56 10
-56 -24 0 -23 -4 -26 -32 -26 -29 0 -33 -4 -36 -27 -4 -31 -6 -32 -31 -19 -25
14 -44 -3 -44 -38 0 -24 -3 -28 -14 -20 -7 6 -24 9 -37 7 -18 -4 -26 0 -30 16
-3 11 -7 18 -10 15 -3 -3 1 -23 9 -44 8 -24 11 -56 8 -79 -4 -29 -3 -37 6 -32
6 4 9 16 6 27 -7 22 -2 24 24 7 25 -16 51 -3 51 25 0 20 5 23 35 23 26 -1 35
-5 35 -19 0 -15 -3 -15 -21 -5 -17 11 -22 10 -35 -7 -9 -12 -13 -30 -9 -45 3
-14 2 -20 -2 -14 -12 16 -38 23 -53 14 -8 -5 -14 -30 -16 -62 -1 -29 0 -45 3
-36 4 14 8 16 24 7 11 -5 28 -7 38 -4 13 4 20 0 24 -15 6 -23 3 -24 -22 -8
-24 15 -51 -4 -51 -36 0 -25 34 -66 54 -66 21 0 39 28 33 50 -6 23 -3 24 22 8
28 -17 54 7 49 44 -4 25 -3 27 10 15 11 -12 12 -19 2 -37 -6 -12 -9 -28 -6
-37 5 -12 0 -13 -24 -8 -25 6 -31 3 -39 -17 -4 -13 -6 -29 -3 -37 4 -11 1 -11
-18 -1 -12 6 -30 10 -41 7 -12 -3 -20 2 -24 14 -4 10 -10 19 -15 19 -10 0 -1
-38 11 -46 5 -3 9 -15 9 -27 1 -28 19 -52 46 -61 26 -8 49 16 41 43 -4 16 1
18 34 17 31 0 39 -5 39 -19 0 -15 -3 -16 -22 -6 -18 10 -24 8 -35 -7 -7 -10
-13 -25 -13 -33 0 -12 -10 -16 -35 -16 -29 0 -37 4 -42 23 -5 22 -18 29 -27
14 -2 -4 -50 -4 -106 0 -61 5 -107 5 -114 -1 -6 -5 -32 -21 -58 -35 -38 -21
-52 -24 -72 -16 -31 11 -35 25 -6 17 16 -4 20 -1 16 11 -3 9 -8 34 -12 55 -3
21 -12 37 -20 37 -7 0 -19 10 -25 23 -9 18 -9 20 2 10 23 -22 32 -14 26 23 -4
20 -16 46 -29 58 -20 19 -20 21 -5 24 14 3 16 10 11 36 -5 32 -3 35 52 69 l58
35 -65 6 c-35 3 -107 8 -159 11 -52 2 -158 9 -235 15 -77 5 -197 13 -267 16
l-127 7 5 -54 c5 -62 20 -162 39 -264 7 -38 23 -137 36 -218 25 -166 25 -167
111 -167 34 0 39 3 34 17 -6 16 -5 16 11 1 12 -11 46 -18 108 -22 50 -3 118
-8 153 -12 47 -5 62 -4 62 6 0 9 3 10 14 1 8 -6 51 -13 97 -15 46 -2 112 -7
145 -11 43 -5 64 -4 69 4 4 8 11 9 19 2 6 -5 65 -12 131 -16 66 -3 145 -7 175
-10 30 -2 102 -7 160 -10 58 -3 148 -8 200 -11 168 -11 155 -13 152 21 -1 17
-5 37 -8 45 -4 13 -6 13 -14 0 -8 -13 -10 -13 -10 1 0 9 3 19 7 23 10 9 4 78
-7 90 -5 5 -12 -2 -16 -18 -5 -22 -12 -26 -40 -26 -43 0 -45 18 -2 22 31 3 34
6 42 51 5 31 5 56 -2 70 -10 21 -11 21 -11 -4 -1 -22 -5 -26 -26 -21 -29 5
-55 -13 -55 -38 0 -13 -6 -16 -25 -12 -20 3 -27 -1 -35 -23 -6 -15 -7 -31 -4
-37 4 -6 -3 -5 -15 2 -12 6 -30 8 -40 5 -13 -4 -20 0 -24 15 -4 17 -2 18 14 9
33 -17 59 -2 59 34 0 24 3 28 12 19 28 -28 58 -8 58 39 0 21 16 26 23 7 3 -10
9 -10 23 -2 24 14 40 89 26 118 -10 20 -11 19 -11 -6 -1 -25 -3 -27 -26 -18
-26 10 -55 -8 -55 -35 0 -9 -10 -13 -27 -12 -25 2 -28 -2 -31 -30 -3 -30 -5
-31 -38 -26 -31 5 -34 3 -40 -23 -5 -25 -10 -29 -40 -29 -27 0 -34 4 -34 19 0
15 3 16 14 7 21 -17 56 3 56 32 0 18 6 22 33 22 27 0 32 4 35 26 3 23 8 27 35
25 28 -1 32 3 35 25 3 23 8 27 35 25 29 -1 32 2 35 29 2 19 11 34 25 41 12 6
41 21 65 33 23 12 48 30 54 41 9 14 16 16 25 8 9 -7 17 -7 28 2 12 10 15 10
15 -4 0 -15 35 -22 90 -18 8 1 31 -3 51 -9 l36 -9 17 -98 c10 -53 21 -115 26
-137 5 -22 12 -64 16 -94 12 -101 28 -27 32 148 3 154 3 164 -13 151 -16 -13
-16 -12 -1 23 14 34 14 47 0 135 -8 53 -18 115 -21 137 -8 55 -22 82 -34 64
-7 -11 -9 -9 -9 8 0 12 6 23 13 26 9 3 6 16 -11 48 -12 24 -22 58 -22 75 0 17
-3 33 -6 37 -4 3 -17 37 -29 74 -29 86 -94 228 -100 221 -3 -3 -1 -17 5 -32 5
-15 10 -41 10 -57 0 -17 5 -40 12 -52 6 -12 11 -37 10 -55 -1 -19 5 -49 13
-68 24 -57 18 -60 -108 -53 -114 6 -144 1 -187 -36 -8 -7 -25 -16 -37 -19 -18
-6 -22 -2 -28 24 -8 37 -25 30 -25 -12 0 -26 -2 -29 -15 -18 -8 7 -24 10 -36
7 -12 -3 -22 0 -26 9 -8 22 2 27 26 12 18 -11 23 -11 31 2 5 8 10 28 10 43 0
16 4 26 10 22 15 -9 12 51 -3 67 -7 7 -12 35 -12 61 0 29 -5 51 -13 56 -9 6
-11 19 -7 44 8 40 -2 80 -17 71 -5 -4 -8 -17 -5 -30 4 -25 -7 -32 -19 -13 -3
6 -17 9 -30 6 -14 -2 -25 2 -29 11 -8 22 0 25 25 10 18 -11 23 -11 35 5 7 10
11 27 8 37 -3 12 0 20 7 20 12 0 10 38 -4 70 -4 11 10 25 49 50 42 27 50 36
37 41 -9 3 -82 12 -162 18 -80 7 -192 17 -250 23 -58 5 -145 14 -195 18 -49 5
-112 11 -140 14 -27 3 -113 10 -190 16 -77 6 -156 12 -175 14 -112 10 -389 37
-470 46 -140 15 -130 18 -124 -42z m468 -124 c3 -8 2 -12 -4 -9 -6 3 -10 10
-10 16 0 14 7 11 14 -7z m116 -8 c0 -11 -19 -15 -25 -6 -3 5 1 10 9 10 9 0 16
-2 16 -4z m50 -11 c0 -8 -2 -15 -4 -15 -2 0 -6 7 -10 15 -3 8 -1 15 4 15 6 0
10 -7 10 -15z m116 -12 c-8 -8 -36 5 -36 17 0 7 6 7 21 0 11 -7 18 -14 15 -17z
m44 1 c0 -8 -4 -12 -10 -9 -5 3 -10 10 -10 16 0 5 5 9 10 9 6 0 10 -7 10 -16z
m115 -15 c-10 -15 -22 -10 -28 11 -4 17 -2 18 14 9 11 -5 17 -14 14 -20z m156
-22 c-13 -13 -16 -10 -25 26 l-7 28 22 -22 c15 -15 18 -24 10 -32z m-101 10
c0 -4 -10 -3 -21 4 -17 9 -19 13 -8 20 13 8 28 -5 29 -24z m157 -13 c-2 -3
-12 -2 -21 2 -16 6 -16 8 1 24 17 16 18 16 21 -2 2 -11 2 -22 -1 -24z m243 21
c14 -19 14 -19 -2 -6 -10 7 -18 18 -18 24 0 6 1 8 3 6 1 -2 9 -13 17 -24z
m-970 -6 c0 -6 -4 -7 -10 -4 -5 3 -10 11 -10 16 0 6 5 7 10 4 6 -3 10 -11 10
-16z m105 1 c3 -5 1 -10 -4 -10 -6 0 -11 5 -11 10 0 6 2 10 4 10 3 0 8 -4 11
-10z m760 -6 c20 5 25 3 25 -14 0 -22 -10 -26 -28 -8 -16 16 -42 -7 -42 -39 0
-21 -2 -22 -21 -13 -25 14 -49 -2 -49 -34 0 -19 -5 -22 -40 -21 -31 0 -40 4
-40 18 0 20 4 21 30 7 24 -13 44 11 38 45 -5 25 5 34 17 15 3 -5 17 -10 31
-10 24 0 29 11 24 55 -2 16 0 17 14 6 9 -8 26 -11 41 -7z m-701 -9 c3 -8 1
-15 -4 -15 -6 0 -10 7 -10 15 0 8 2 15 4 15 2 0 6 -7 10 -15z m98 -17 c-9 -9
-12 -7 -12 12 0 19 3 21 12 12 9 -9 9 -15 0 -24z m68 1 c0 -6 -4 -7 -10 -4 -5
3 -10 11 -10 16 0 6 5 7 10 4 6 -3 10 -11 10 -16z m150 11 c7 11 10 8 10 -14
0 -24 -2 -27 -15 -16 -8 7 -24 10 -34 7 -13 -3 -21 1 -24 13 -4 15 -1 16 25 6
23 -9 31 -8 38 4z m570 -14 c0 -6 -16 -11 -35 -11 -19 0 -35 5 -35 11 0 5 16
10 35 10 19 0 35 -5 35 -10z m-416 -8 c22 10 24 8 28 -19 4 -26 3 -28 -12 -14
-20 18 -56 20 -63 3 -3 -7 -6 0 -6 16 -1 24 1 27 14 16 12 -10 22 -10 39 -2z
m518 -20 c-9 -9 -12 -7 -12 12 0 19 3 21 12 12 9 -9 9 -15 0 -24z m63 -6 c-1
-1 -10 0 -19 4 -13 5 -14 9 -4 21 10 13 13 13 19 -4 3 -10 5 -19 4 -21z
m-1015 -2 c0 -5 -4 -10 -10 -10 -5 0 -10 5 -10 10 0 6 5 10 10 10 6 0 10 -4
10 -10z m60 -23 c0 -5 -4 -5 -10 -2 -5 3 -10 14 -10 23 0 15 2 15 10 2 5 -8
10 -19 10 -23z m668 21 c10 -10 17 -10 32 0 17 11 20 10 20 -8 0 -16 -5 -19
-23 -15 -32 8 -51 -16 -42 -52 6 -27 6 -27 -14 -9 -29 27 -55 17 -59 -22 -3
-28 -6 -31 -18 -22 -7 7 -25 10 -38 6 -19 -5 -25 -1 -28 18 -5 24 -4 24 18 9
32 -21 54 -10 54 26 0 29 1 30 26 19 23 -11 28 -10 40 7 8 10 12 27 8 37 -6
21 6 24 24 6z m-558 -19 c0 -5 -7 -9 -15 -9 -8 0 -15 7 -15 15 0 9 6 12 15 9
8 -4 15 -10 15 -15z m50 -1 c0 -16 -3 -19 -11 -11 -6 6 -8 16 -5 22 11 17 16
13 16 -11z m663 -24 c-9 -14 -12 -32 -8 -45 7 -21 6 -21 -15 -6 -12 8 -29 13
-37 10 -8 -3 -19 0 -24 8 -13 21 -11 35 3 21 31 -31 76 -3 62 40 -5 17 -3 18
14 7 18 -12 19 -15 5 -35z m57 14 c0 -16 -3 -19 -11 -11 -6 6 -8 16 -5 22 11
17 16 13 16 -11z m-1126 -14 c3 -8 2 -12 -4 -9 -6 3 -10 10 -10 16 0 14 7 11
14 -7z m111 -4 c3 -5 1 -10 -4 -10 -6 0 -11 5 -11 10 0 6 2 10 4 10 3 0 8 -4
11 -10z m52 -12 c-3 -8 -6 -5 -6 6 -1 11 2 17 5 13 3 -3 4 -12 1 -19z m117 -9
c-6 -11 -24 -2 -24 11 0 5 7 7 15 4 8 -4 12 -10 9 -15z m56 -10 c0 -6 -4 -7
-10 -4 -5 3 -10 11 -10 16 0 6 5 7 10 4 6 -3 10 -11 10 -16z m120 -3 c0 -2 -6
-6 -14 -9 -8 -3 -16 2 -19 14 -4 16 -2 17 14 8 10 -5 19 -11 19 -13z m-420
-16 c0 -5 -2 -10 -4 -10 -3 0 -8 5 -11 10 -3 6 -1 10 4 10 6 0 11 -4 11 -10z
m227 -37 c-4 -17 -4 -17 -12 0 -4 9 -4 25 0 35 8 16 8 16 12 0 3 -10 3 -26 0
-35z m723 14 c0 -20 -5 -23 -35 -23 -20 1 -37 7 -40 15 -8 20 0 24 23 12 15
-8 23 -7 32 4 17 20 20 19 20 -8z m-780 3 c0 -5 -2 -10 -4 -10 -3 0 -8 5 -11
10 -3 6 -1 10 4 10 6 0 11 -4 11 -10z m164 -21 c-10 -16 -24 -9 -24 12 0 18 2
19 15 9 8 -7 12 -16 9 -21z m723 10 c9 -9 8 -18 -4 -35 -8 -13 -13 -31 -9 -39
7 -18 2 -19 -23 -3 -28 17 -51 3 -51 -33 0 -27 -2 -30 -15 -19 -11 9 -13 16
-5 24 5 5 10 23 10 38 0 25 2 27 19 17 28 -18 51 -4 51 31 0 32 9 37 27 19z
m49 -26 c-11 -11 -19 6 -11 24 8 17 8 17 12 0 3 -10 2 -21 -1 -24z m-1011 -13
c3 -5 1 -10 -4 -10 -6 0 -11 5 -11 10 0 6 2 10 4 10 3 0 8 -4 11 -10z m58 -11
c4 -16 3 -18 -9 -8 -7 6 -11 15 -8 20 8 13 11 11 17 -12z m107 -10 c0 -5 -4
-9 -10 -9 -5 0 -10 7 -10 16 0 8 5 12 10 9 6 -3 10 -10 10 -16z m60 -9 c0 -5
-7 -7 -15 -4 -8 4 -12 10 -9 15 6 11 24 2 24 -11z m-305 -10 c3 -5 1 -10 -4
-10 -6 0 -11 5 -11 10 0 6 2 10 4 10 3 0 8 -4 11 -10z m-97 -25 c-3 -3 -9 2
-12 12 -6 14 -5 15 5 6 7 -7 10 -15 7 -18z m162 4 c0 -5 -4 -9 -10 -9 -5 0
-10 7 -10 16 0 8 5 12 10 9 6 -3 10 -10 10 -16z m100 6 c7 -9 8 -15 2 -15 -5
0 -12 7 -16 15 -3 8 -4 15 -2 15 2 0 9 -7 16 -15z m-74 -49 c15 -16 18 -26 6
-26 -4 0 -13 9 -20 20 -14 23 -7 26 14 6z m64 -18 c0 -16 -3 -19 -11 -11 -6 6
-8 16 -5 22 11 17 16 13 16 -11z m106 1 c3 -6 2 -15 -4 -21 -6 -6 -11 -2 -15
11 -5 22 7 29 19 10z m571 3 c9 -6 7 -11 -7 -20 -17 -11 -20 -10 -20 8 0 21 7
25 27 12z m53 -13 c0 -18 -2 -19 -15 -9 -15 12 -12 30 6 30 5 0 9 -10 9 -21z
m-560 -16 c0 -13 -3 -13 -15 -3 -8 7 -12 16 -9 21 8 13 24 1 24 -18z m880 -8
c0 -23 -2 -24 -21 -15 -15 9 -24 8 -35 -1 -8 -6 -14 -9 -14 -6 0 3 -3 12 -6
21 -5 13 -1 15 24 10 17 -4 32 -1 36 5 11 17 16 13 16 -14z m-1185 -5 c3 -5 1
-10 -4 -10 -6 0 -11 5 -11 10 0 6 2 10 4 10 3 0 8 -4 11 -10z m65 -21 c0 -5
-4 -9 -10 -9 -5 0 -10 7 -10 16 0 8 5 12 10 9 6 -3 10 -10 10 -16z m100 0 c0
-6 -4 -7 -10 -4 -5 3 -10 11 -10 16 0 6 5 7 10 4 6 -3 10 -11 10 -16z m629
-22 c1 -5 -6 -1 -15 7 -8 9 -12 21 -8 28 5 8 10 6 15 -8 4 -10 8 -23 8 -27z
m-560 -11 c1 -6 -5 -1 -13 9 -8 11 -12 24 -8 29 5 9 20 -17 21 -38z m1291 -80
c0 -3 -4 -8 -10 -11 -5 -3 -10 -1 -10 4 0 6 5 11 10 11 6 0 10 -2 10 -4z
m-410 -16 c17 9 20 8 20 -9 0 -15 -7 -19 -32 -17 -30 1 -33 -2 -36 -31 -3 -28
-5 -31 -21 -21 -28 17 -51 3 -51 -31 0 -29 -1 -30 -25 -19 -18 8 -28 8 -39 -1
-11 -9 -14 -6 -18 19 -4 29 -4 29 14 13 24 -22 52 -7 56 30 3 22 6 25 25 18
33 -12 47 -3 47 30 0 27 2 29 20 19 14 -8 26 -8 40 0z m124 -37 c-8 -8 -14
-24 -14 -36 0 -18 -6 -22 -32 -22 -28 0 -33 -4 -36 -26 -3 -23 -8 -27 -35 -25
-28 1 -32 -3 -35 -26 -3 -24 -6 -26 -38 -21 -34 6 -34 5 -34 -33 0 -29 -3 -35
-12 -26 -29 29 -76 -4 -62 -43 6 -14 3 -14 -20 -4 -20 9 -29 9 -41 -1 -13 -11
-15 -9 -15 11 0 21 5 24 33 24 31 0 32 1 31 40 -1 22 1 34 3 27 3 -7 14 -17
25 -23 24 -13 48 4 48 35 0 17 6 21 33 21 28 0 32 4 35 28 4 30 6 31 31 17 25
-13 56 20 46 50 -6 19 -5 20 13 9 29 -18 52 -5 52 31 0 27 2 29 19 18 16 -10
17 -14 5 -25z m53 0 c-3 -3 -10 -2 -16 2 -7 4 -7 10 2 20 10 11 13 11 15 -2 2
-8 1 -17 -1 -20z m154 -6 c-16 -16 -25 -1 -10 16 8 8 16 11 18 5 2 -5 -2 -15
-8 -21z m-41 4 c0 -6 -4 -13 -10 -16 -5 -3 -10 -17 -10 -31 0 -23 -10 -31 -23
-18 -7 7 25 73 36 74 4 0 7 -4 7 -9z m148 -26 c-3 -3 -9 2 -12 12 -6 14 -5 15
5 6 7 -7 10 -15 7 -18z m-223 -24 c3 -5 1 -12 -5 -16 -5 -3 -10 -17 -10 -30 0
-22 -3 -24 -30 -19 -25 5 -31 3 -39 -17 -4 -13 -6 -30 -3 -37 4 -12 1 -12 -16
-1 -18 11 -19 15 -7 22 8 4 15 20 15 34 0 22 3 24 24 19 28 -7 58 17 50 39 -7
16 11 21 21 6z m207 -13 c-7 -7 -12 -8 -12 -2 0 14 12 26 19 19 2 -3 -1 -11
-7 -17z m-52 -2 c0 -19 -22 -56 -32 -55 -10 0 -10 2 0 6 6 2 12 16 12 29 0 13
5 24 10 24 6 0 10 -2 10 -4z m-68 -58 c-7 -7 -12 -22 -12 -35 0 -13 -4 -23 -8
-23 -18 0 -20 13 -6 34 8 13 11 26 7 29 -3 4 2 7 12 7 15 0 16 -3 7 -12z m218
2 c0 -5 -4 -10 -10 -10 -5 0 -10 5 -10 10 0 6 5 10 10 10 6 0 10 -4 10 -10z
m-63 -22 c-3 -8 -6 -5 -6 6 -1 11 2 17 5 13 3 -3 4 -12 1 -19z m-391 -43 c-8
-28 -15 -35 -29 -31 -31 8 -47 -4 -47 -35 0 -27 -1 -28 -26 -17 -22 10 -28 10
-39 -5 -7 -10 -11 -27 -8 -37 3 -11 1 -20 -5 -20 -17 0 -25 21 -13 33 6 6 11
20 11 32 0 16 6 20 33 20 30 0 32 2 32 37 0 33 2 35 16 22 33 -30 73 -7 62 37
-6 21 -4 22 9 12 12 -11 13 -19 4 -48z m541 13 c-3 -7 -5 -2 -5 12 0 14 2 19
5 13 2 -7 2 -19 0 -25z m-371 11 c3 -6 2 -14 -4 -18 -6 -3 -12 -18 -14 -33 -2
-22 -6 -25 -18 -18 -12 7 -12 12 -2 22 6 6 12 22 12 35 0 24 14 31 26 12z
m-71 -65 c-8 -6 -15 -22 -15 -35 0 -21 -5 -24 -32 -24 -30 0 -34 -3 -39 -35
-4 -19 -7 -29 -8 -22 -1 8 -11 12 -28 10 -23 -2 -29 -9 -33 -38 -3 -23 -8 -31
-13 -22 -13 20 -47 14 -56 -10 -5 -13 -6 -29 -3 -36 3 -10 -1 -10 -22 -1 -19
9 -29 9 -39 0 -12 -9 -16 -7 -20 9 -5 19 -2 21 22 15 34 -7 55 14 49 49 -5 23
-4 24 17 10 31 -20 55 -8 55 27 0 26 2 28 19 19 29 -15 51 -2 51 31 0 31 9 36
28 17 17 -17 42 8 42 43 0 27 2 28 20 17 18 -11 18 -14 5 -24z m209 2 c-3 -9
-10 -16 -15 -16 -5 0 -4 9 3 20 14 22 21 20 12 -4z m162 -12 c-4 -9 -9 -15
-11 -12 -3 3 -3 13 1 22 4 9 9 15 11 12 3 -3 3 -13 -1 -22z m-1492 -5 c-6 -11
-24 -2 -24 11 0 5 7 7 15 4 8 -4 12 -10 9 -15z m1281 12 c3 -5 1 -12 -5 -16
-5 -3 -10 -17 -10 -31 0 -21 -3 -24 -25 -18 -15 4 -32 1 -40 -6 -12 -10 -15
-9 -15 8 0 16 6 20 33 18 28 -1 32 2 35 27 3 27 16 35 27 18z m-1121 -17 c4
-10 1 -14 -6 -12 -15 5 -23 28 -10 28 5 0 13 -7 16 -16z m-106 -19 c-3 -3 -9
2 -12 12 -6 14 -5 15 5 6 7 -7 10 -15 7 -18z m165 0 c4 -25 4 -25 -15 -9 -14
14 -16 19 -6 26 7 4 14 8 14 8 1 0 4 -11 7 -25z m1208 -9 c-6 -14 -15 -26 -20
-26 -5 0 -3 14 6 31 18 36 28 33 14 -5z m-1501 -18 c0 -12 -6 -9 -26 13 -19
22 -19 22 4 8 12 -8 22 -17 22 -21z m47 -10 c-3 -8 -6 -5 -6 6 -1 11 2 17 5
13 3 -3 4 -12 1 -19z m111 4 c6 -18 -15 -14 -22 4 -4 10 -1 14 6 12 6 -2 14
-10 16 -16z m1276 -7 c-4 -8 -8 -15 -10 -15 -2 0 -4 7 -4 15 0 8 4 15 10 15 5
0 7 -7 4 -15z m-1214 -5 c0 -5 -2 -10 -4 -10 -3 0 -8 5 -11 10 -3 6 -1 10 4
10 6 0 11 -4 11 -10z m1367 -32 c-3 -7 -5 -2 -5 12 0 14 2 19 5 13 2 -7 2 -19
0 -25z m-327 7 c0 -5 -13 -10 -30 -10 -16 0 -30 5 -30 10 0 6 14 10 30 10 17
0 30 -4 30 -10z m-1010 -30 c10 -12 10 -15 -4 -15 -9 0 -16 7 -16 15 0 8 2 15
4 15 2 0 9 -7 16 -15z m-100 -16 c0 -6 -4 -7 -10 -4 -5 3 -10 11 -10 16 0 6 5
7 10 4 6 -3 10 -11 10 -16z m160 1 c0 -5 -7 -7 -15 -4 -8 4 -12 10 -9 15 6 11
24 2 24 -11z m890 -2 c0 -20 -5 -23 -40 -23 -30 0 -40 4 -40 16 0 11 7 14 29
11 16 -2 32 1 35 7 11 17 16 13 16 -11z m-1199 -15 c13 -16 12 -17 -3 -4 -10
7 -18 15 -18 17 0 8 8 3 21 -13z m185 -30 c-7 -7 -26 7 -26 19 0 6 6 6 15 -2
9 -7 13 -15 11 -17z m48 -9 c5 -14 4 -15 -9 -4 -17 14 -19 20 -6 20 5 0 12 -7
15 -16z m892 -6 c0 -21 -7 -23 -24 -6 -19 19 -55 -20 -47 -52 5 -20 4 -23 -6
-12 -7 6 -23 12 -36 12 -23 0 -28 -12 -25 -53 2 -15 -1 -15 -18 -5 -16 10 -24
10 -40 0 -18 -11 -20 -10 -20 15 0 21 3 24 12 15 28 -28 58 -8 58 39 0 16 3
18 17 10 24 -13 53 4 53 32 0 19 5 22 38 22 29 0 38 -3 38 -17z m-1196 -3 c7
-9 8 -15 2 -15 -5 0 -12 7 -16 15 -3 8 -4 15 -2 15 2 0 9 -7 16 -15z m180 -27
c0 -16 -20 -7 -30 12 -10 19 -10 20 9 8 12 -7 21 -16 21 -20z m54 -14 c3 -8 2
-12 -4 -9 -6 3 -10 10 -10 16 0 14 7 11 14 -7z m116 -6 c0 -13 -23 -5 -28 10
-2 7 2 10 12 6 9 -3 16 -11 16 -16z m50 -3 c0 -9 -6 -12 -15 -9 -8 4 -12 10
-9 15 8 14 24 10 24 -6z m-295 -33 c-3 -3 -11 0 -18 7 -9 10 -8 11 6 5 10 -3
15 -9 12 -12z m170 -12 c3 -5 2 -10 -4 -10 -5 0 -13 5 -16 10 -3 6 -2 10 4 10
5 0 13 -4 16 -10z m-75 -56 c0 -4 -11 3 -25 16 -14 13 -25 27 -25 32 0 5 11
-2 25 -16 14 -14 25 -28 25 -32z m120 46 c0 -5 -2 -10 -4 -10 -3 0 -8 5 -11
10 -3 6 -1 10 4 10 6 0 11 -4 11 -10z m478 -21 c17 9 20 7 24 -14 5 -26 -5
-34 -18 -14 -3 6 -19 9 -34 5 -23 -4 -29 -1 -32 19 -5 22 -4 23 18 9 17 -12
28 -13 42 -5z m-448 -19 c0 -5 13 -10 29 -10 17 0 33 -5 36 -11 11 -16 -3 -23
-19 -10 -8 6 -18 11 -22 10 -20 -3 -32 2 -38 16 -3 8 -1 15 4 15 6 0 10 -4 10
-10z m630 -5 c0 -6 -18 -10 -40 -10 -23 0 -40 4 -40 11 0 7 16 11 40 10 22 0
40 -5 40 -11z m-722 -30 c-3 -3 -9 2 -12 12 -6 14 -5 15 5 6 7 -7 10 -15 7
-18z m268 14 c3 -6 16 -8 29 -5 17 4 24 1 28 -15 4 -15 2 -17 -6 -10 -7 5 -25
11 -41 13 -16 1 -31 9 -34 16 -5 15 14 16 24 1z m-581 -9 c3 -5 1 -10 -4 -10
-6 0 -11 5 -11 10 0 6 2 10 4 10 3 0 8 -4 11 -10z m165 -15 c14 -19 14 -19 -2
-6 -10 7 -18 18 -18 24 0 6 1 8 3 6 1 -2 9 -13 17 -24z m634 -1 c3 -7 -10 -11
-35 -10 -21 0 -39 6 -39 12 0 14 68 12 74 -2z m138 -4 c19 0 28 -5 28 -15 0
-12 -4 -13 -19 -5 -32 16 -51 2 -52 -39 0 -20 -3 -30 -6 -23 -2 6 -12 12 -21
12 -15 1 -15 2 1 14 10 8 17 27 17 47 0 26 3 30 12 21 7 -7 25 -12 40 -12z
m-588 -15 c16 -12 17 -15 4 -15 -8 0 -21 7 -28 15 -16 19 -1 19 24 0z m189
-15 c15 0 26 -4 23 -9 -8 -13 -69 2 -74 19 -4 12 -2 13 9 3 7 -7 26 -13 42
-13z m159 -10 c17 0 28 -5 28 -13 0 -16 -61 -10 -72 7 -12 18 -9 31 4 18 7 -7
25 -12 40 -12z m148 -22 c0 -17 -28 -7 -33 11 -4 17 -2 18 14 8 10 -6 19 -15
19 -19z m-574 -15 c-7 -7 -26 7 -26 19 0 6 6 6 15 -2 9 -7 13 -15 11 -17z
m764 12 c14 5 20 2 20 -9 0 -25 -74 -17 -78 8 -3 15 -1 16 17 6 12 -6 31 -8
41 -5z m-595 -15 c3 -5 -1 -10 -9 -10 -9 0 -16 5 -16 10 0 6 4 10 9 10 6 0 13
-4 16 -10z m165 -12 c8 -3 22 -2 31 3 13 7 18 3 22 -17 3 -18 1 -22 -6 -15 -6
6 -24 11 -39 11 -15 0 -28 2 -28 4 0 2 -3 13 -6 23 -4 11 -3 14 3 7 4 -6 15
-13 23 -16z m-82 -45 c9 -7 26 -13 39 -13 13 0 23 -4 23 -8 0 -4 -16 -6 -35
-4 -27 3 -39 11 -51 33 -8 16 -19 29 -25 29 -6 0 -7 5 -4 11 5 6 13 1 23 -13
8 -13 22 -29 30 -35z m264 27 c10 0 18 6 18 13 0 17 20 -14 20 -32 0 -11 -3
-11 -15 -1 -8 7 -25 10 -40 6 -21 -5 -25 -3 -25 16 0 17 3 19 12 10 7 -7 20
-12 30 -12z m198 -23 c0 -14 -4 -16 -18 -8 -10 6 -28 7 -40 4 -15 -4 -22 -1
-22 10 0 10 11 14 40 13 31 0 40 -4 40 -19z m160 1 c0 -20 -5 -23 -35 -23 -25
0 -35 4 -35 16 0 12 7 14 30 11 18 -3 30 0 30 7 0 6 2 11 5 11 3 0 5 -10 5
-22z m-780 2 c13 -8 13 -10 -2 -10 -9 0 -20 5 -23 10 -8 13 5 13 25 0z m926
-9 c11 9 14 8 14 -5 0 -10 -8 -16 -23 -16 -27 0 -47 -17 -47 -40 0 -12 -8 -15
-35 -12 -19 2 -35 8 -35 14 0 5 9 6 20 3 27 -9 50 11 50 42 0 21 2 22 21 13
15 -9 24 -8 35 1z m-544 -35 c14 -20 8 -28 -8 -12 -8 9 -26 16 -40 16 -13 0
-24 4 -24 8 0 12 64 1 72 -12z m161 -10 c3 -8 -8 -10 -34 -8 -22 2 -39 9 -39
16 0 16 67 8 73 -8z m167 -4 c0 -15 -8 -18 -35 -18 -21 1 -35 6 -35 14 0 8 8
10 24 6 13 -3 27 -1 30 5 10 16 16 13 16 -7z m320 -27 c0 -8 -7 -15 -15 -15
-26 0 -18 20 13 29 1 1 2 -6 2 -14z"/>
<path d="M2383 2673 c-7 -2 -13 -18 -13 -34 0 -26 3 -29 35 -29 19 0 38 0 43
-1 16 -1 11 28 -8 49 -21 22 -33 25 -57 15z"/>
<path d="M2485 2610 c-3 -5 3 -10 15 -10 12 0 18 5 15 10 -3 6 -10 10 -15 10
-5 0 -12 -4 -15 -10z"/>
<path d="M2647 2370 c3 -11 7 -20 9 -20 2 0 4 9 4 20 0 11 -4 20 -9 20 -5 0
-7 -9 -4 -20z"/>
</g>
</svg>
