<svg width="55" height="48" viewBox="0 0 55 48" fill="none" xmlns="http://www.w3.org/2000/svg">
<g filter="url(#filter0_d)">
<path d="M36.3125 27.0085C35.8451 27.0085 35.3968 27.2331 35.0663 27.633C34.7357 28.0329 34.55 28.5752 34.55 29.1407C34.55 29.7062 34.7357 30.2485 35.0663 30.6484C35.3968 31.0483 35.8451 31.2729 36.3125 31.2729H42.1875C42.655 31.2729 43.1033 31.0483 43.4338 30.6484C43.7644 30.2485 43.95 29.7062 43.95 29.1407C43.95 28.5752 43.7644 28.0329 43.4338 27.633C43.1033 27.2331 42.655 27.0085 42.1875 27.0085H36.3125Z" fill="white"/>
<path d="M10.4625 0C8.74854 0 7.10478 0.823703 5.89282 2.2899C4.68087 3.7561 4 5.7447 4 7.81822V31.9836C4 34.0572 4.68087 36.0457 5.89282 37.5119C7.10478 38.9781 8.74854 39.8019 10.4625 39.8019H44.5375C46.2515 39.8019 47.8952 38.9781 49.1072 37.5119C50.3191 36.0457 51 34.0572 51 31.9836V7.81822C51 5.7447 50.3191 3.7561 49.1072 2.2899C47.8952 0.823703 46.2515 0 44.5375 0H10.4625ZM7.525 31.9836V17.0579H47.475V31.9836C47.475 33.9453 46.159 35.5374 44.5375 35.5374H10.4625C8.841 35.5374 7.525 33.9453 7.525 31.9836ZM7.525 12.7935V7.81822C7.525 5.85656 8.841 4.26448 10.4625 4.26448H44.5375C46.159 4.26448 47.475 5.85656 47.475 7.81822V12.7935H7.525Z" fill="white"/>
</g>
<defs>
<filter id="filter0_d" x="0" y="0" width="55" height="47.8019" filterUnits="userSpaceOnUse" color-interpolation-filters="sRGB">
<feFlood flood-opacity="0" result="BackgroundImageFix"/>
<feColorMatrix in="SourceAlpha" type="matrix" values="0 0 0 0 0 0 0 0 0 0 0 0 0 0 0 0 0 0 127 0" result="hardAlpha"/>
<feOffset dy="4"/>
<feGaussianBlur stdDeviation="2"/>
<feComposite in2="hardAlpha" operator="out"/>
<feColorMatrix type="matrix" values="0 0 0 0 0 0 0 0 0 0 0 0 0 0 0 0 0 0 0.25 0"/>
<feBlend mode="normal" in2="BackgroundImageFix" result="effect1_dropShadow"/>
<feBlend mode="normal" in="SourceGraphic" in2="effect1_dropShadow" result="shape"/>
</filter>
</defs>
</svg>
