<svg width="53" height="50" viewBox="0 0 53 50" fill="none" xmlns="http://www.w3.org/2000/svg">
<g filter="url(#filter0_d)">
<path d="M9.65714 0.381821C8.22497 0.381821 6.85146 0.945001 5.83876 1.94747C4.82607 2.94993 4.25714 4.30957 4.25714 5.72728V27.1091C4.25714 28.5268 4.82607 29.8864 5.83876 30.8889C6.85146 31.8914 8.22497 32.4545 9.65714 32.4545H29.9071V30.6611C29.676 30.3779 29.458 30.0845 29.2537 29.7818H9.65714C8.94106 29.7818 8.2543 29.5002 7.74795 28.999C7.2416 28.4978 6.95714 27.8179 6.95714 27.1091V5.72728C6.95714 5.01842 7.2416 4.33861 7.74795 3.83737C8.2543 3.33614 8.94106 3.05455 9.65714 3.05455H42.0571C42.7732 3.05455 43.46 3.33614 43.9663 3.83737C44.4727 4.33861 44.7571 5.01842 44.7571 5.72728V12.3236C45.7399 12.8047 46.6471 13.4194 47.4571 14.1357V5.72728C47.4571 4.30957 46.8882 2.94993 45.8755 1.94747C44.8628 0.945001 43.4893 0.381821 42.0571 0.381821H9.65714Z" fill="white"/>
<path d="M48.8072 23.1C48.8072 25.581 47.8115 27.9603 46.0393 29.7147C44.2671 31.469 41.8635 32.4545 39.3572 32.4545C36.8509 32.4545 34.4472 31.469 32.675 29.7147C30.9028 27.9603 29.9072 25.581 29.9072 23.1C29.9072 20.619 30.9028 18.2397 32.675 16.4853C34.4472 14.731 36.8509 13.7455 39.3572 13.7455C41.8635 13.7455 44.2671 14.731 46.0393 16.4853C47.8115 18.2397 48.8072 20.619 48.8072 23.1Z" fill="white"/>
<path d="M39.3571 35.1273C41.8546 35.1273 44.1766 34.3789 46.1071 33.1013V40.4727C46.1071 40.7209 46.0373 40.9642 45.9055 41.1753C45.7737 41.3864 45.5851 41.557 45.3609 41.668C45.1366 41.779 44.8856 41.826 44.6359 41.8037C44.3862 41.7814 44.1477 41.6907 43.9471 41.5418L40.1671 38.7355C39.9334 38.562 39.6492 38.4682 39.3571 38.4682C39.065 38.4682 38.7808 38.562 38.5471 38.7355L34.7671 41.5418C34.5665 41.6907 34.3281 41.7814 34.0784 41.8037C33.8287 41.826 33.5776 41.779 33.3534 41.668C33.1291 41.557 32.9405 41.3864 32.8087 41.1753C32.6769 40.9642 32.6071 40.7209 32.6071 40.4727V33.1013C34.6037 34.4258 36.9537 35.1311 39.3571 35.1273Z" fill="white"/>
<path d="M12.3571 9.73637C12.3571 9.38195 12.4993 9.04204 12.7525 8.79142C13.0057 8.5408 13.3491 8.40001 13.7071 8.40001H38.0071C38.3652 8.40001 38.7085 8.5408 38.9617 8.79142C39.2149 9.04204 39.3571 9.38195 39.3571 9.73637C39.3571 10.0908 39.2149 10.4307 38.9617 10.6813C38.7085 10.9319 38.3652 11.0727 38.0071 11.0727H13.7071C13.3491 11.0727 13.0057 10.9319 12.7525 10.6813C12.4993 10.4307 12.3571 10.0908 12.3571 9.73637Z" fill="white"/>
<path d="M13.7071 21.7636C13.3491 21.7636 13.0057 21.9044 12.7525 22.1551C12.4993 22.4057 12.3571 22.7456 12.3571 23.1C12.3571 23.4544 12.4993 23.7943 12.7525 24.045C13.0057 24.2956 13.3491 24.4364 13.7071 24.4364H24.5071C24.8652 24.4364 25.2085 24.2956 25.4617 24.045C25.7149 23.7943 25.8571 23.4544 25.8571 23.1C25.8571 22.7456 25.7149 22.4057 25.4617 22.1551C25.2085 21.9044 24.8652 21.7636 24.5071 21.7636H13.7071Z" fill="white"/>
</g>
<defs>
<filter id="filter0_d" x="0" y="0" width="53" height="50" filterUnits="userSpaceOnUse" color-interpolation-filters="sRGB">
<feFlood flood-opacity="0" result="BackgroundImageFix"/>
<feColorMatrix in="SourceAlpha" type="matrix" values="0 0 0 0 0 0 0 0 0 0 0 0 0 0 0 0 0 0 127 0" result="hardAlpha"/>
<feOffset dy="4"/>
<feGaussianBlur stdDeviation="2"/>
<feComposite in2="hardAlpha" operator="out"/>
<feColorMatrix type="matrix" values="0 0 0 0 0 0 0 0 0 0 0 0 0 0 0 0 0 0 0.25 0"/>
<feBlend mode="normal" in2="BackgroundImageFix" result="effect1_dropShadow"/>
<feBlend mode="normal" in="SourceGraphic" in2="effect1_dropShadow" result="shape"/>
</filter>
</defs>
</svg>
