<svg width="50" height="57" viewBox="0 0 50 57" fill="none" xmlns="http://www.w3.org/2000/svg">
<g filter="url(#filter0_d)">
<path d="M34.1988 0.772522C35.6021 0.772522 36.9479 1.33499 37.9401 2.33619C38.9324 3.33738 39.4898 4.6953 39.4898 6.1112V42.8888C39.4898 44.3047 38.9324 45.6626 37.9401 46.6638C36.9479 47.665 35.6021 48.2275 34.1988 48.2275H9.50977C8.1065 48.2275 6.76071 47.665 5.76845 46.6638C4.7762 45.6626 4.21875 44.3047 4.21875 42.8888V6.1112C4.21875 4.6953 4.7762 3.33738 5.76845 2.33619C6.76071 1.33499 8.1065 0.772522 9.50977 0.772522H34.1988ZM34.1988 4.33164H9.50977C9.04201 4.33164 8.59341 4.51913 8.26266 4.85286C7.93191 5.1866 7.74609 5.63924 7.74609 6.1112V42.8888C7.74609 43.8711 8.53622 44.6684 9.50977 44.6684H34.1988C34.6666 44.6684 35.1152 44.4809 35.4459 44.1471C35.7767 43.8134 35.9625 43.3608 35.9625 42.8888V6.1112C35.9625 5.63924 35.7767 5.1866 35.4459 4.85286C35.1152 4.51913 34.6666 4.33164 34.1988 4.33164ZM41.8437 31.623H43.6074C44.0336 31.623 44.4454 31.7787 44.7666 32.0614C45.0878 32.344 45.2967 32.7345 45.3546 33.1605L45.3711 33.4025V36.9569C45.3711 37.387 45.2167 37.8024 44.9366 38.1265C44.6565 38.4506 44.2695 38.6614 43.8473 38.7199L43.6074 38.7365H41.8437V31.623H43.6074H41.8437ZM41.8437 22.132H43.6074C44.0336 22.132 44.4454 22.2878 44.7666 22.5704C45.0878 22.8531 45.2967 23.2435 45.3546 23.6695L45.3711 23.9116V27.4659C45.3711 27.896 45.2167 28.3114 44.9366 28.6355C44.6565 28.9596 44.2695 29.1704 43.8473 29.2289L43.6074 29.2455H41.8437V22.132H43.6074H41.8437ZM41.8437 12.641H43.6074C44.0336 12.641 44.4454 12.7968 44.7666 13.0794C45.0878 13.3621 45.2967 13.7525 45.3546 14.1785L45.3711 14.4206V17.9749C45.3711 18.405 45.2167 18.8205 44.9366 19.1445C44.6565 19.4686 44.2695 19.6794 43.8473 19.7379L43.6074 19.7545H41.8437V12.641H43.6074H41.8437ZM30.6715 7.89077C31.1392 7.89077 31.5878 8.07825 31.9186 8.41199C32.2493 8.74572 32.4351 9.19836 32.4351 9.67033V15.5975C32.4351 16.0694 32.2493 16.5221 31.9186 16.8558C31.5878 17.1895 31.1392 17.377 30.6715 17.377H13.0371C12.5694 17.377 12.1208 17.1895 11.79 16.8558C11.4593 16.5221 11.2734 16.0694 11.2734 15.5975V9.67033C11.2734 9.19836 11.4593 8.74572 11.79 8.41199C12.1208 8.07825 12.5694 7.89077 13.0371 7.89077H30.6715ZM28.9078 11.4499H14.8008V13.8179H28.9078V11.4499Z" fill="white"/>
</g>
<defs>
<filter id="filter0_d" x="0" y="0" width="50" height="57" filterUnits="userSpaceOnUse" color-interpolation-filters="sRGB">
<feFlood flood-opacity="0" result="BackgroundImageFix"/>
<feColorMatrix in="SourceAlpha" type="matrix" values="0 0 0 0 0 0 0 0 0 0 0 0 0 0 0 0 0 0 127 0" result="hardAlpha"/>
<feOffset dy="4"/>
<feGaussianBlur stdDeviation="2"/>
<feComposite in2="hardAlpha" operator="out"/>
<feColorMatrix type="matrix" values="0 0 0 0 0 0 0 0 0 0 0 0 0 0 0 0 0 0 0.25 0"/>
<feBlend mode="normal" in2="BackgroundImageFix" result="effect1_dropShadow"/>
<feBlend mode="normal" in="SourceGraphic" in2="effect1_dropShadow" result="shape"/>
</filter>
</defs>
</svg>
